Coordinates
version=1
nRows=17
nColumns=40
inDegrees=yes

Units are S.I. units (second, meters, Newtons, ...)
If the header above contains a line with 'inDegrees', this indicates whether rotational values are in degrees (yes) or radians (no).

endheader
time	pelvis_tilt	pelvis_list	pelvis_rotation	pelvis_tx	pelvis_ty	pelvis_tz	hip_flexion_r	hip_adduction_r	hip_rotation_r	knee_angle_r	knee_angle_r_beta	ankle_angle_r	subtalar_angle_r	mtp_angle_r	hip_flexion_l	hip_adduction_l	hip_rotation_l	knee_angle_l	knee_angle_l_beta	ankle_angle_l	subtalar_angle_l	mtp_angle_l	lumbar_extension	lumbar_bending	lumbar_rotation	arm_flex_r	arm_add_r	arm_rot_r	elbow_flex_r	pro_sup_r	wrist_flex_r	wrist_dev_r	arm_flex_l	arm_add_l	arm_rot_l	elbow_flex_l	pro_sup_l	wrist_flex_l	wrist_dev_l
      3.88333333	     -6.91651927	     -2.78837095	      3.13676285	     -0.23153362	      1.16770052	     -0.02654654	     36.62546513	     -5.09984168	     -7.73938146	     44.29607160	      0.77311230	      2.23304979	      2.87026098	      0.00000000	     79.33245798	     -9.53435565	      9.61473119	    117.45275606	      2.04993731	     14.65514362	      0.88857570	      0.00000000	    -64.13134843	      3.76668562	      2.65210805	     87.23683073	    -16.06903802	     60.91617421	     28.21083200	     64.81325929	      0.00000000	      0.00000000	     83.95482646	    -12.20438987	     41.89629609	     35.21812334	     59.71208820	      0.00000000	      0.00000000
      3.89166667	     -6.80799963	     -2.74960147	      3.07109243	     -0.23124760	      1.16796817	     -0.02699749	     35.91664898	     -5.07604886	     -7.57759144	     44.51546070	      0.77694136	      2.21077048	      2.86219888	      0.00000000	     80.20807557	     -9.52088788	      9.39464423	    117.35106646	      2.04816249	     14.70283001	      0.86746391	      0.00000000	    -64.25559223	      3.69750540	      2.64119293	     87.26678723	    -16.08822799	     60.82589545	     28.27174211	     64.76500166	      0.00000000	      0.00000000	     83.95813648	    -12.22774708	     41.87222039	     35.27836456	     59.68861319	      0.00000000	      0.00000000
      3.90000000	     -6.69887679	     -2.77144144	      3.02273366	     -0.23111718	      1.16829033	     -0.02745665	     35.26139589	     -4.95579638	     -7.31386685	     44.78915582	      0.78171824	      2.17989341	      2.84549891	      0.00000000	     81.03752235	     -9.49234159	      9.14969078	    117.13278467	      2.04435275	     14.70374694	      0.80054754	      0.00000000	    -64.39665187	      3.68174005	      2.66834158	     87.28917200	    -16.11546522	     60.75689228	     28.33797078	     64.71786103	      0.00000000	      0.00000000	     83.99010209	    -12.27211344	     41.90003205	     35.35370210	     59.67005502	      0.00000000	      0.00000000
      3.90833333	     -6.73514719	     -2.84577863	      2.63962493	     -0.23139120	      1.16856219	     -0.02736138	     34.93865489	     -4.59682260	     -6.77207269	     45.23500242	      0.78949973	      2.10069971	      2.40886404	      0.00000000	     81.88249046	     -9.72469610	      8.91131647	    116.70530874	      2.03689189	     14.21848395	     -0.15492378	      0.00000000	    -64.42379246	      3.42434371	      2.88689110	     87.34187345	    -16.36483678	     61.28901529	     28.68439315	     64.68823182	      0.00000000	      0.00000000	     84.13032316	    -12.43429128	     42.59751267	     35.43844272	     59.59190847	      0.00000000	      0.00000000
      3.91666667	     -6.74600603	     -2.94148978	      2.66759777	     -0.23129604	      1.16873193	     -0.02789012	     34.68546175	     -4.40515309	     -6.31198605	     46.02558760	      0.80329804	      2.26624259	      2.32437221	      0.00000000	     82.58503787	     -9.60237456	      8.70489878	    116.09268115	      2.02619952	     14.07289897	     -0.25553496	      0.00000000	    -64.46562068	      3.53343499	      2.91956943	     87.16632604	    -16.44421533	     60.52215422	     29.23360562	     64.39573189	      0.00000000	      0.00000000	     84.04072978	    -12.50591524	     42.27067496	     35.76536517	     59.40265186	      0.00000000	      0.00000000
      3.92500000	     -6.88739751	     -2.70537929	      2.48235975	     -0.23196971	      1.16839379	     -0.02835101	     34.85505227	     -4.44317969	     -5.59603421	     47.16165472	      0.82312616	      2.56290176	      1.33708642	      0.00000000	     83.23754309	     -9.44422403	      8.05608008	    115.38561078	      2.01385882	     13.66379217	     -1.64626752	      0.00000000	    -64.32848747	      3.29282771	      2.80678855	     87.43679277	    -16.40004304	     61.30274640	     28.74875445	     64.42159922	      0.00000000	      0.00000000	     84.26681909	    -12.49595438	     43.05146895	     35.41077575	     59.15326359	      0.00000000	      0.00000000
      3.93333333	     -6.72007596	     -2.88533079	      2.43854740	     -0.23202948	      1.16869140	     -0.02843634	     34.58814560	     -4.25609519	     -5.56020355	     48.27448307	      0.84254867	      3.01573562	      1.22764191	      0.00000000	     83.57617112	     -9.50736489	      7.90902824	    114.49865614	      1.99837854	     13.21572266	     -1.81354212	      0.00000000	    -64.53542130	      3.34792694	      2.99840214	     87.47305495	    -16.43266832	     61.24631127	     28.82324631	     64.35073046	      0.00000000	      0.00000000	     84.31269352	    -12.50113853	     42.98578501	     35.52935369	     59.06534623	      0.00000000	      0.00000000
      3.94166667	     -6.89443052	     -2.62528088	      2.33538168	     -0.23264929	      1.16838398	     -0.02902580	     34.92855670	     -4.50763770	     -5.17416918	     49.71499594	      0.86769037	      3.71366176	      0.82305375	      0.00000000	     83.98272309	     -9.43645887	      7.10701997	    113.42549232	      1.97964830	     13.04014923	     -3.25176193	      0.00000000	    -64.38830314	      3.17521674	      2.79458758	     87.53754967	    -16.46641455	     61.32836584	     28.92307432	     64.21718804	      0.00000000	      0.00000000	     84.37914853	    -12.52089009	     43.12662304	     35.53108711	     58.74905983	      0.00000000	      0.00000000
      3.95000000	     -7.02187520	     -2.51582833	      2.35884511	     -0.23339746	      1.16823005	     -0.02950978	     35.26479814	     -4.74859490	     -5.13511333	     51.22878509	      0.89411097	      4.28326462	      0.73205641	      0.00000000	     84.22547492	     -9.09577624	      6.65799642	    112.19018115	      1.95808805	     12.85445180	     -4.28635351	      0.00000000	    -64.30712556	      3.17216811	      2.68431377	     87.60263511	    -16.49743263	     61.27354206	     29.05660552	     64.13886173	      0.00000000	      0.00000000	     84.45837451	    -12.53441994	     43.17632830	     35.57086436	     58.51045879	      0.00000000	      0.00000000
      3.95833333	     -6.90987000	     -2.74042053	      2.37777517	     -0.23381282	      1.16833987	     -0.02964301	     35.33360188	     -4.60435417	     -5.23096058	     52.73953774	      0.92047858	      4.86664216	      0.56622824	      0.00000000	     84.07212976	     -9.05351178	      6.53199794	    111.03512367	      1.93792849	     13.00154329	     -4.52426806	      0.00000000	    -64.45879777	      3.32544802	      2.89128515	     87.70927464	    -16.52437823	     61.28463903	     29.14606078	     64.14897444	      0.00000000	      0.00000000	     84.51182655	    -12.52090170	     43.10460666	     35.59128220	     58.46876138	      0.00000000	      0.00000000
      3.96666667	     -6.78912678	     -2.89964716	      2.40988533	     -0.23409387	      1.16830550	     -0.02977274	     35.47488895	     -4.54092210	     -5.29970588	     54.37837126	      0.94908162	      5.44819187	      0.35453814	      0.00000000	     83.90390106	     -9.09080574	      6.39198379	    109.62361208	      1.91329297	     12.57292282	     -4.50308509	      0.00000000	    -64.58126696	      3.46151119	      3.04581615	     87.73984118	    -16.55737660	     61.21819582	     29.27771896	     64.13194939	      0.00000000	      0.00000000	     84.49596955	    -12.51715350	     43.00152712	     35.58033731	     58.41897798	      0.00000000	      0.00000000
      3.97500000	     -7.13569251	     -2.52115233	      2.34253881	     -0.23519011	      1.16756701	     -0.03045412	     36.41388833	     -5.08882318	     -5.05782442	     56.35795499	      0.98363187	      6.03308403	      0.22673168	      0.00000000	     83.84996882	     -8.79547110	      5.72024625	    108.02259903	      1.88535002	     12.48703514	     -4.63347423	      0.00000000	    -64.24908619	      3.27495455	      2.70907898	     87.77136068	    -16.56709934	     61.12567030	     29.43234257	     64.18140086	      0.00000000	      0.00000000	     84.51243716	    -12.52288012	     42.86977307	     35.61439523	     58.39117769	      0.00000000	      0.00000000
      3.98333333	     -7.00960396	     -2.87925859	      2.31608457	     -0.23569140	      1.16777946	     -0.03036253	     36.61446613	     -4.82393872	     -5.26155973	     57.94906467	      1.01140198	      6.39596497	      0.14575032	      0.00000000	     83.35660656	     -8.88833916	      5.86141848	    106.39588801	      1.85695856	     12.48842802	     -4.64287141	      0.00000000	    -64.42422655	      3.47626067	      3.07229549	     87.90878054	    -16.57866837	     61.11016103	     29.48585423	     64.19514166	      0.00000000	      0.00000000	     84.53723892	    -12.53882630	     42.78220539	     35.67913290	     58.38635986	      0.00000000	      0.00000000
      3.99166667	     -7.26061444	     -2.41455460	      2.18575852	     -0.23664641	      1.16698224	     -0.03067569	     37.66243356	     -5.37895054	     -4.83442350	     60.20415315	      1.05076070	      6.93092246	     -0.14176038	      0.00000000	     82.95030823	     -8.79008524	      5.06488551	    104.53205555	      1.82442854	     12.36602739	     -4.30236900	      0.00000000	    -64.15956040	      3.16341548	      2.69920933	     87.86827759	    -16.61406394	     61.06656847	     29.86484018	     63.41923260	      0.00000000	      0.00000000	     84.60012854	    -12.63544519	     43.28538051	     35.82636071	     57.01233693	      0.00000000	      0.00000000
      4.00000000	     -7.28558387	     -2.72894694	      2.25343611	     -0.23721902	      1.16666451	     -0.03091987	     38.24646340	     -5.30985426	     -5.06781269	     62.09981274	      1.08384620	      7.22137346	     -0.46306118	      0.00000000	     82.38617744	     -8.73420222	      5.26155552	    102.77252981	      1.79371903	     12.70808310	     -3.63601587	      0.00000000	    -64.13880387	      3.45454250	      2.96887421	     87.93767981	    -16.64864079	     60.84426722	     29.81172307	     64.59491514	      0.00000000	      0.00000000	     84.42563404	    -12.53962674	     42.28795964	     35.78990656	     58.60788798	      0.00000000	      0.00000000
      4.00833333	     -7.36711023	     -2.67258973	      2.18937132	     -0.23787280	      1.16633479	     -0.03099197	     39.05937467	     -5.50090854	     -4.93547983	     64.23622461	      1.12113362	      7.57430834	     -0.26892253	      0.00000000	     81.64383770	     -8.74452223	      5.01283016	    100.84751643	      1.76012120	     12.63688471	     -3.19524013	      0.00000000	    -64.06624474	      3.41958045	      2.93070055	     88.05549781	    -16.44369020	     60.64409295	     29.67310428	     64.28694800	      0.00000000	      0.00000000	     84.42658810	    -12.62058249	     42.42112601	     35.93973342	     57.74945440	      0.00000000	      0.00000000
      4.01666667	     -7.44423333	     -2.70928378	      2.12623327	     -0.23857114	      1.16598730	     -0.03103158	     40.04914929	     -5.68743132	     -4.93511187	     66.49157075	      1.16049683	      7.62646602	     -0.36167306	      0.00000000	     80.89265478	     -8.81566217	      4.87761498	     98.72614006	      1.72309620	     12.59465876	     -2.07204540	      0.00000000	    -63.99019388	      3.43962100	      2.96998702	     88.15307625	    -16.37440500	     60.98947850	     29.73525924	     63.24651353	      0.00000000	      0.00000000	     84.45248506	    -12.70478865	     42.66834775	     36.06990434	     56.67053063	      0.00000000	      0.00000000
